***************************************************************

[IMG]http://www.hotimg.org/images/67363952943939111394.png[/IMG]

***************************************************************

[IMG]http://www.hotimg.org/images/88439347059199734138.jpg[/IMG]

***************************************************************

FILM TITLE: Tower Heist (2011)

***************************************************************

Genre: Action | Comedy | Crime    

Rated PG-13 for language and sexual content

Release:  2 November 2011 (Sweden)

Director: Brett Ratner

Writer: Ted Griffin (screenplay), Jeff Nathanson

Stars: Eddie Murphy, Ben Stiller and Casey Affleck

Country: USA 

Language:  English

Plot:
When a group of hard working guys find out they've fallen victim to a wealthy 
business man's Ponzi scheme, they conspire to rob his high-rise residence.

IMDB Rating: 6.4/10 from 14,274 users   Metascore: 59/100 
 
http://www.imdb.com/title/tt0471042/

****************************************************************

[URL=http://www.hotimg.org/viewer.php?file=66414757280364185424.png][IMG]http://www.hotimg.org/images/66414757280364185424_thumb.png[/IMG][/URL]
[URL=http://www.hotimg.org/viewer.php?file=88203133445338185604.png][IMG]http://www.hotimg.org/images/88203133445338185604_thumb.png[/IMG][/URL]
[URL=http://www.hotimg.org/viewer.php?file=42829040617002856166.png][IMG]http://www.hotimg.org/images/42829040617002856166_thumb.png[/IMG][/URL]
[URL=http://www.hotimg.org/viewer.php?file=88669483207345716561.png][IMG]http://www.hotimg.org/images/88669483207345716561_thumb.png[/IMG][/URL]
[URL=http://www.hotimg.org/viewer.php?file=66497997798883302928.png][IMG]http://www.hotimg.org/images/66497997798883302928_thumb.png[/IMG][/URL]

****************************************************************

General
Complete name                    : Tower Heist 2011 720p BDRip XviD ac3 (avi) [GREYSHADOW].avi
Format                           : AVI
Format/Info                      : Audio Video Interleave
Format profile                   : OpenDML
File size                        : 3.76 GiB
Duration                         : 1h 44mn
Overall bit rate                 : 5143 Kbps
Writing library                  : VirtualDub build 32842/release

Video
ID                               : 0
Format                           : MPEG-4 Visual
Format profile                   : Simple@L5
Format settings, BVOP            : No
Format settings, QPel            : No
Format settings, GMC             : No warppoints
Format settings, Matrix          : Default (H.263)
Codec ID                         : XVID
Codec ID/Hint                    : XviD
Duration                         : 1h 44mn
Bit rate                         : 4 494 Kbps
Width                            : 1280 pixels
Height                           : 528 pixels
Display aspect ratio             : 2.40:1
Frame rate                       : 23.976 fps
Color space                      : YUV
Chroma subsampling               : 4:2:0
Bit depth                        : 8 bits
Scan type                        : Progressive
Compression mode                 : Lossy
Bits/(Pixel*Frame)               : 0.277
Stream size                      : 3.28 GiB (87%)
Writing library                  : XviD 64

Audio
ID                               : 1
Format                           : AC-3
Format/Info                      : Audio Coding 3
Mode extension                   : CM (complete main)
Codec ID                         : 2000
Duration                         : 1h 44mn
Bit rate mode                    : Constant
Bit rate                         : 640 Kbps
Channel(s)                       : 6 channels
Channel positions                : Front: L C R, Side: L R, LFE
Sampling rate                    : 48.0 KHz
Bit depth                        : 16 bits
Compression mode                 : Lossy
Stream size                      : 479 MiB (12%)
Alignment                        : Aligned on interleaves
Interleave, duration             : 42 ms (1.00 video frame)
Interleave, preload duration     : 512 ms

****************************************************************

Video Source: Tower Heist 2011 BluRay 1080p AVC DTS-HD MA5.1-CHDBits

Thanks: chdbits.org

****************************************************************

I provide a small sample, so please download this to check your 
compatibility first if you are unsure.

****************************************************************

Hash: D61BB7A407EE96F49E3A6EA6A7C722D50F31E502

Trackers:
.udp://tracker.1337x.org:80/announce

****************************************************************